<svg width="1600" height="720" viewBox="0 0 1600 720" fill="none" xmlns="http://www.w3.org/2000/svg">
  <rect width="1600" height="720" fill="#EAF2F7"/>
  <rect y="440" width="1600" height="280" fill="#E4C9A1"/>
  <path d="M0 370L140 250L260 320L420 190L560 280L700 170L830 265L980 145L1160 260L1340 180L1480 260L1600 220V500H0V370Z" fill="#7D98AE"/>
  <path d="M0 420L140 320L280 380L430 260L560 340L720 230L860 330L1020 215L1190 350L1350 280L1490 350L1600 320V520H0V420Z" fill="#5B6E80"/>
  <path d="M110 420H250V560H110V420Z" fill="#D47A49"/>
  <rect x="140" y="450" width="30" height="30" fill="#F8F1D3"/>
  <rect x="190" y="450" width="30" height="30" fill="#F8F1D3"/>
  <rect x="140" y="500" width="30" height="30" fill="#F8F1D3"/>
  <rect x="190" y="500" width="30" height="30" fill="#F8F1D3"/>
  <path d="M90 420L180 360L270 420H90Z" fill="#A24835"/>
  <rect x="340" y="390" width="120" height="170" fill="#CC9360"/>
  <path d="M320 390L400 330L480 390H320Z" fill="#8F4A39"/>
  <rect x="370" y="430" width="24" height="100" fill="#6D4D37"/>
  <rect x="410" y="430" width="24" height="24" fill="#F8F1D3"/>
  <rect x="410" y="470" width="24" height="24" fill="#F8F1D3"/>
  <rect x="560" y="430" width="160" height="130" fill="#D7A56D"/>
  <rect x="590" y="455" width="28" height="28" fill="#F8F1D3"/>
  <rect x="635" y="455" width="28" height="28" fill="#F8F1D3"/>
  <rect x="680" y="455" width="28" height="28" fill="#F8F1D3"/>
  <path d="M540 430L640 360L740 430H540Z" fill="#B45D40"/>
  <rect x="1180" y="410" width="150" height="150" fill="#C98E5C"/>
  <path d="M1160 410L1255 340L1350 410H1160Z" fill="#8E4632"/>
  <rect x="1215" y="445" width="32" height="32" fill="#F8F1D3"/>
  <rect x="1265" y="445" width="32" height="32" fill="#F8F1D3"/>
  <rect x="1215" y="495" width="32" height="32" fill="#F8F1D3"/>
  <rect x="1265" y="495" width="32" height="32" fill="#F8F1D3"/>
  <rect x="0" y="560" width="1600" height="160" fill="#C28A52"/>
  <rect x="0" y="575" width="1600" height="18" fill="#5F6870"/>
  <rect x="0" y="626" width="1600" height="18" fill="#5F6870"/>
  <rect x="1060" y="505" width="40" height="125" fill="#496E52"/>
  <circle cx="1080" cy="470" r="46" fill="#628D66"/>
  <rect x="955" y="520" width="36" height="110" fill="#496E52"/>
  <circle cx="973" cy="490" r="42" fill="#628D66"/>
  <rect x="1460" y="510" width="34" height="120" fill="#496E52"/>
  <circle cx="1477" cy="485" r="40" fill="#628D66"/>
  <rect width="1600" height="720" fill="url(#paint0_linear_551_2)" fill-opacity="0.22"/>
  <defs>
    <linearGradient id="paint0_linear_551_2" x1="800" y1="0" x2="800" y2="720" gradientUnits="userSpaceOnUse">
      <stop stop-color="#0F172A"/>
      <stop offset="1" stop-color="#0F172A" stop-opacity="0"/>
    </linearGradient>
  </defs>
</svg>
